<svg class="hide" xmlns="http://www.w3.org/2000/svg" xmlns:xlink="http://www.w3.org/1999/xlink">
<symbol id="atls-arrow-down" viewBox="0 0 24 24"><path d="M7.669 9.757a1 1 0 10-1.338 1.486l1.338-1.486zM12 15l-.669.743.669.602.669-.602L12 15zm5.669-3.757a1 1 0 10-1.338-1.486l1.338 1.486zm-11.338 0l5 4.5 1.338-1.486-5-4.5-1.338 1.486zm6.338 4.5l5-4.5-1.338-1.486-5 4.5 1.338 1.486z"/></symbol>
<symbol id="atls-notifications" viewBox="0 0 24 24"><path d="M12 1a2.75 2.75 0 012.75 2.75c.458 0 3.667.917 3.667 6.417 0 2.141 2.78 3.879 4.01 4.542.344.187.573.543.573.935V17a1 1 0 01-1 1H2a1 1 0 01-1-1v-1.356c0-.392.229-.748.574-.935 1.23-.663 4.01-2.4 4.01-4.542 0-5.5 3.208-6.417 3.666-6.417A2.75 2.75 0 0112 1zm-.017 22a5.435 5.435 0 01-4.86-3h9.72a5.435 5.435 0 01-4.86 3z"/></symbol>
<symbol id="atls-search" viewBox="0 0 24 24"><path d="M21 11c0 2.038-.61 3.934-1.657 5.515l3.435 3.435a1 1 0 010 1.414l-1.414 1.414a1 1 0 01-1.414 0l-3.435-3.435A9.954 9.954 0 0111 21C5.477 21 1 16.523 1 11S5.477 1 11 1s10 4.477 10 10zm-10 7a7 7 0 100-14 7 7 0 000 14z"/></symbol>
<symbol id="atls-copy" viewBox="0 0 24 24"><rect x="3" y="6" width="14" height="16" rx="1"/><path fill-rule="evenodd" clip-rule="evenodd" d="M7 2a1 1 0 00-1 1v1h12a1 1 0 011 1v14h1a1 1 0 001-1V3a1 1 0 00-1-1H7z"/></symbol>
<symbol id="atls-edit" viewBox="0 0 24 24"><path d="M17.284 2.293c.39-.39 1.024-.39 1.415 0l3.048 3.045a.999.999 0 010 1.413l-1.524 1.523-4.463-4.459 1.524-1.522zm-3.012 3.009l4.463 4.458-9.67 9.66-2.232-2.229-2.231-2.23 9.67-9.66zM2.031 20.776l1.083-4.328 4.463 4.458-4.333 1.082a1 1 0 01-1.213-1.212z"/></symbol>
<symbol id="atls-close" viewBox="0 0 24 24"><path d="M12 23c6.075 0 11-4.925 11-11S18.075 1 12 1 1 5.925 1 12s4.925 11 11 11zm2.828-15.243a1 1 0 111.415 1.415L13.414 12l2.829 2.828a1 1 0 11-1.415 1.415L12 13.414l-2.828 2.829a1 1 0 11-1.415-1.415L10.586 12 7.757 9.172a1 1 0 011.415-1.415L12 10.586l2.828-2.829z"/></symbol>
<symbol id="atls-authorised" viewBox="0 0 24 24"><path d="M23 12c0 6.075-4.925 11-11 11S1 18.075 1 12 5.925 1 12 1s11 4.925 11 11zm-2 0a9 9 0 11-18 0 9 9 0 0118 0zm-4.623-4.714a1 1 0 011.414.014l.14.144a1 1 0 01-.014 1.414l-8.184 8.02a1 1 0 01-1.415-.014l-.14-.143a1.192 1.192 0 01-.022-.023L5.302 13.94a1.008 1.008 0 01-.018-1.421 1.008 1.008 0 011.42-.031l2.198 2.123 7.475-7.325z"/></symbol>
</svg>