<svg xmlns="http://www.w3.org/2000/svg" xmlns:xlink="http://www.w3.org/1999/xlink">
<symbol id="atls-arrow-down" viewBox="0 0 24 24"><path d="M7.669 9.757a1 1 0 10-1.338 1.486l1.338-1.486zM12 15l-.669.743.669.602.669-.602L12 15zm5.669-3.757a1 1 0 10-1.338-1.486l1.338 1.486zm-11.338 0l5 4.5 1.338-1.486-5-4.5-1.338 1.486zm6.338 4.5l5-4.5-1.338-1.486-5 4.5 1.338 1.486z"/></symbol>
<symbol id="atls-notifications" viewBox="0 0 24 24"><path d="M12 1a2.75 2.75 0 012.75 2.75c.458 0 3.667.917 3.667 6.417 0 2.141 2.78 3.879 4.01 4.542.344.187.573.543.573.935V17a1 1 0 01-1 1H2a1 1 0 01-1-1v-1.356c0-.392.229-.748.574-.935 1.23-.663 4.01-2.4 4.01-4.542 0-5.5 3.208-6.417 3.666-6.417A2.75 2.75 0 0112 1zm-.017 22a5.435 5.435 0 01-4.86-3h9.72a5.435 5.435 0 01-4.86 3z"/></symbol>
<symbol id="atls-search" viewBox="0 0 24 24"><path d="M21 11c0 2.038-.61 3.934-1.657 5.515l3.435 3.435a1 1 0 010 1.414l-1.414 1.414a1 1 0 01-1.414 0l-3.435-3.435A9.954 9.954 0 0111 21C5.477 21 1 16.523 1 11S5.477 1 11 1s10 4.477 10 10zm-10 7a7 7 0 100-14 7 7 0 000 14z"/></symbol>
<symbol id="atls-copy" viewBox="0 0 24 24"><rect x="3" y="6" width="14" height="16" rx="1"/><path fill-rule="evenodd" clip-rule="evenodd" d="M7 2a1 1 0 00-1 1v1h12a1 1 0 011 1v14h1a1 1 0 001-1V3a1 1 0 00-1-1H7z"/></symbol>
<symbol id="atls-edit" viewBox="0 0 24 24"><path d="M17.284 2.293c.39-.39 1.024-.39 1.415 0l3.048 3.045a.999.999 0 010 1.413l-1.524 1.523-4.463-4.459 1.524-1.522zm-3.012 3.009l4.463 4.458-9.67 9.66-2.232-2.229-2.231-2.23 9.67-9.66zM2.031 20.776l1.083-4.328 4.463 4.458-4.333 1.082a1 1 0 01-1.213-1.212z"/></symbol>
<symbol id="atls-close" viewBox="0 0 24 24"><path d="M12 23c6.075 0 11-4.925 11-11S18.075 1 12 1 1 5.925 1 12s4.925 11 11 11zm2.828-15.243a1 1 0 111.415 1.415L13.414 12l2.829 2.828a1 1 0 11-1.415 1.415L12 13.414l-2.828 2.829a1 1 0 11-1.415-1.415L10.586 12 7.757 9.172a1 1 0 011.415-1.415L12 10.586l2.828-2.829z"/></symbol>
<symbol id="atls-close2" viewBox="0 0 24 24"><path d="M19.074 4.921a1 1 0 00-1.414.012l-5.608 5.707-5.714-5.715a1 1 0 10-1.413 1.413l5.726 5.727-5.608 5.707a1 1 0 001.427 1.402l5.596-5.694 5.588 5.588a1 1 0 001.413-1.413l-5.6-5.6 5.62-5.72a1 1 0 00-.013-1.414z"/></symbol>
<symbol id="atls-trash" viewBox="0 0 24 24"><path d="M10 4v2h4V4h-4zM8 3v3H3a1 1 0 000 2h18a1 1 0 100-2h-5V3a1 1 0 00-1-1H9a1 1 0 00-1 1zm12 7H4l1.87 12.152a1 1 0 00.988.848h10.284a1 1 0 00.989-.848L20 10z"/></symbol>
<symbol id="atls-authorised" viewBox="0 0 24 24"><path fill-rule="evenodd" clip-rule="evenodd" d="M23 12c0 6.075-4.925 11-11 11S1 18.075 1 12 5.925 1 12 1s11 4.925 11 11zm-2 0a9 9 0 11-18 0 9 9 0 0118 0zm-4.623-4.714a1 1 0 011.414.014l.14.144a1 1 0 01-.014 1.414l-8.184 8.02a1 1 0 01-1.415-.014l-.14-.143a1.192 1.192 0 01-.022-.023L5.302 13.94a1.008 1.008 0 01-.018-1.421 1.008 1.008 0 011.42-.031l2.198 2.123 7.475-7.325z"/></symbol>
<symbol id="atls-help" viewBox="0 0 24 24"><path fill-rule="evenodd" clip-rule="evenodd" d="M23 12c0 6.075-4.925 11-11 11S1 18.075 1 12 5.925 1 12 1s11 4.925 11 11zm-10 6a1 1 0 11-2 0 1 1 0 012 0zm0-3v-2.132A4.015 4.015 0 0016 9c0-2.168-1.88-4-4.107-4-1.55 0-3.151 1.061-3.806 2.521a.99.99 0 00.53 1.317 1.035 1.035 0 001.35-.516C10.26 7.672 11.06 7 11.893 7c1.094 0 2.054.935 2.054 2s-.827 2-1.92 2c-.568 0-1.027.448-1.027 1v3h2z"/></symbol>
<symbol id="atls-alert" viewBox="0 0 24 24"><path fill-rule="evenodd" d="M21.063 20L12 4.049 2.937 20h18.126zM13.74 3.06c-.767-1.349-2.711-1.349-3.478 0L1.198 19.013C.44 20.345 1.403 22 2.937 22h18.126c1.534 0 2.497-1.655 1.74-2.988L13.738 3.061zM11 10a1 1 0 112 0v4a1 1 0 11-2 0v-4zm1 8a1 1 0 100-2 1 1 0 000 2z"/></symbol>
<symbol id="atls-tick" viewBox="0 0 10 8"><path d="M1.707 4.293A1 1 0 00.293 5.707l1.414-1.414zM3 7l-.707.707a1 1 0 001.414 0L3 7zm6.707-5.293A1 1 0 008.293.293l1.414 1.414zm-9.414 4l2 2 1.414-1.414-2-2L.293 5.707zm3.414 2l6-6L8.293.293l-6 6 1.414 1.414z"/></symbol>
<symbol id="atls-chat" viewBox="0 0 24 24"><path fill-rule="evenodd" clip-rule="evenodd" d="M12 21c6.075 0 11-4.03 11-9s-4.925-9-11-9S1 7.03 1 12s4.925 9 11 9zm0-10a1 1 0 110 2 1 1 0 010-2zm5 1a1 1 0 10-2 0 1 1 0 002 0zm-9-1a1 1 0 110 2 1 1 0 010-2z"/><path d="M9.203 18.798a.4.4 0 01-.214.603l-5.885 1.842a.4.4 0 01-.496-.515l2.469-6.976a.4.4 0 01.71-.088l3.416 5.134z"/></symbol>
<symbol id="atls-download" viewBox="0 0 24 24"><path fill-rule="evenodd" clip-rule="evenodd" d="M10 3a2 2 0 114 0v7h4l-6 6-6-6h4V3zM2.5 13A1.5 1.5 0 001 14.5v7A1.5 1.5 0 002.5 23h19a1.5 1.5 0 001.5-1.5v-7a1.5 1.5 0 00-3 0V20H4v-5.5A1.5 1.5 0 002.5 13z"/></symbol>
<symbol id="atls-add" viewBox="0 0 24 24"><path fill-rule="evenodd" clip-rule="evenodd" d="M12 23c6.075 0 11-4.925 11-11S18.075 1 12 1 1 5.925 1 12s4.925 11 11 11zM11 7a1 1 0 112 0v4h4a1 1 0 110 2h-4v4a1 1 0 11-2 0v-4H7a1 1 0 110-2h4V7z"/></symbol>
<symbol id="atls-more-vertical" viewBox="0 0 24 24"><circle cx="12" cy="5" r="2" transform="rotate(90 12 5)"/><circle cx="12" cy="12" r="2" transform="rotate(90 12 12)"/><circle cx="12" cy="19" r="2" transform="rotate(90 12 19)"/></symbol>
<symbol id="atls-success" viewBox="0 0 24 24"><path fill-rule="evenodd" clip-rule="evenodd" d="M23 12c0 6.075-4.925 11-11 11S1 18.075 1 12 5.925 1 12 1s11 4.925 11 11zm-2 0a9 9 0 11-18 0 9 9 0 0118 0zm-4.623-4.714a1 1 0 011.414.014l.14.144a1 1 0 01-.014 1.414l-8.184 8.02a1 1 0 01-1.415-.014l-.14-.143a1.192 1.192 0 01-.022-.023L5.302 13.94a1.008 1.008 0 01-.018-1.421 1.008 1.008 0 011.42-.031l2.198 2.123 7.475-7.325z"/></symbol>
<symbol id="atls-information" viewBox="0 0 24 24"><path d="M23 12a11 11 0 11-22 0 11 11 0 0122 0zM9 16v2h6v-2h-2v-5l-1-1H9v2h2v4H9zm3-8a2 2 0 10-1-3 2 2 0 001 3z"/></symbol>
<symbol id="atls-message" viewBox="0 0 24 24"><path d="M2 4L1 5v2l11 5 11-5V5l-1-1H2zm10 10L1 9v10l1 1h20l1-1V9l-11 5z"/></symbol>
<symbol id="atls-document" viewBox="0 0 24 24"><path d="M21 7l-6-6H5L3 3v18l2 2h14l2-2V7zm-6 10H8l-1-1 1-1h7l1 1-1 1zm2-3H8l-1-1 1-1h9v2zm-2-6l-1-1V3l5 5h-4z" /></symbol>
<symbol id="atls-tickets" viewBox="0 0 24 24"><path d="M2 6L1 7l1 3V8l1-1h17l-2-5-1-1L2 6z"/><path d="M15 9H4l-1 1v4a2 2 0 110 4v4l1 1h11V9zm2 14h3l1-1v-4a2 2 0 110-4v-4l-1-1h-3v14z"/></symbol>
<symbol id="atls-add2" viewBox="0 0 20 20"><path d="M10.09 0a1 1 0 00-1 1v8.01H.99a1 1 0 100 2h8.1V19a1 1 0 102 0v-8H19a1 1 0 100-1.99h-7.9V1a1 1 0 00-1-1z"/></symbol>
<symbol id="atls-location" viewBox="0 0 24 24"><path d="M19 10.213c0 1.79-.633 3.428-1.681 4.69L11.919 23l-5.405-8.307A7.32 7.32 0 015 10.213C5 6.229 8.134 3 12 3s7 3.23 7 7.213zM12 13a3 3 0 100-6 3 3 0 000 6z"/></symbol>
<symbol id="ico-queue" viewBox="0 0 24 24"><path d="M12 11L9 9c0-1 1-2 3-2l2 2h2c0-2-1-3-3-4V3h-3v2C8 6 7 7 7 9s1 3 4 4l3 2c0 1 0 2-2 2-3 0-3-1-3-2H6c0 2 2 3 4 4v2h3v-2c2-1 4-2 4-4 0-3-3-4-5-4z"/></symbol>
<symbol id="ico-changes" viewBox="0 0 24 24"><path d="M4 12.9A1.5 1.5 0 102 15L4 13zM7.5 18l-1 1.1c.6.5 1.4.5 2 0l-1-1.1zM22 7.1A1.5 1.5 0 1020 5L22 7zm-20 8l4.5 4 2-2.2-4.5-4L2 15zm6.5 4L22 7.1 20 5l-13.5 12 2 2.2z"/></symbol>
<symbol id="ico-moveQueue" viewBox="0 0 24 25"><path d="M7.7 2.2h15.8V4H7.7V2.2zM7.7 7.5h15.8v1.8H7.7V7.5zM12.1 12.9h11.4v1.8H12.1v-1.8zM7.7 18.3h15.8v1.8H7.7v-1.8zM2.9 9.1v9.4l6.5-4.7z"/></symbol>
<symbol id="ico-drag" viewBox="0 0 100 100"><path d="M50 0L33 18l5 5 8-8v31H15l8-8-5-5L1 50l17 17 5-5-8-8h31v31l-8-8-5 5 17 17 17-17-5-5-8 8V54h31l-8 8 5 5 18-17-18-17-5 5 8 8H54V15l8 8 5-5L50 0z"/></symbol>
<symbol id="ico-arrow-down" viewBox="0 0 100 100"><path d="M99 25l-2-1H3l-2 1v2l47 49 2 1 1-1 48-49v-2z"/></symbol>
<symbol id="ico-expand" viewBox="0 0 100 100"><path d="M4 64c-2 0-3 2-3 4v30l4 1h26c2 0 4 0 5-2l-2-4-2-1H13l22-22c2-3 0-6-3-6l-4 3L8 87V68c0-2-2-4-4-4zm92-28c2 0 4-2 4-4V4l-1-2-4-2H69c-2 0-4 1-5 3l2 4 2 1h19L66 30c-2 3 0 6 3 6 2 0 3-1 4-3l21-20v19c-1 2 1 4 3 4z"/></symbol>
<symbol id="ico-shrink" viewBox="0 0 100 100"><path d="M42 89c2 0 4-1 4-3V57l-1-1c-1-2-2-2-4-2H15c-2 0-4 0-4 3-1 1 0 3 2 4h21L11 84c-1 2 0 6 3 6 2 0 3-2 4-3l21-21v19c0 2 1 4 3 4zm16-78c-2 0-4 1-4 3v29l1 1c1 2 2 2 4 2h26c2 0 4 0 4-3 1-1 0-3-2-4H66l23-23c1-2 0-6-3-6-2 0-3 2-4 3L61 34V15c0-2-1-4-3-4z"/></symbol>
<symbol id="ico-link" viewBox="0 0 100 100"><path d="M93.1 6.8C89 2.7 83.4.4 77.3.4 70.6.4 64 3.2 59.1 8.1l-18 18.2C33 34.4 31 47.1 36.7 56.2c.9 1.4 2 2.8 3.1 4 1.1 1.1 2.5 2.3 3.9 3.1l.8.5 2.4-2.4c1.3-1.3 2.3-3.2 2.6-4.9.3-2-.1-3.7-1.2-4.8-4.3-4.3-3.7-12 1.3-17.1l18.1-18.1c2.7-2.7 6.3-4.2 9.8-4.2 2.9 0 5.5 1 7.3 2.9 2.1 2.1 3.3 4.8 3.3 7.8s-1.1 5.8-3.3 7.8L70 45.7l.2.7c1.2 3.7 1.6 7.5 1.3 11.5l-.3 3.3L93 39.5c4.3-4.3 6.7-10.1 6.7-16.3.2-6.2-2.2-11.9-6.6-16.4z"/><path d="M22.6 99.4c6.7 0 13.3-2.8 18.2-7.7l18-18C67 65.6 69 52.9 63.3 43.8c-.9-1.4-2-2.8-3.1-4-1.1-1.1-2.5-2.3-3.9-3.1l-.8-.5-2.4 2.4c-1.3 1.3-2.3 3.2-2.6 4.9-.3 2 .1 3.7 1.2 4.8 4.3 4.3 3.7 12-1.3 17.1l-18 17.9c-2.7 2.7-6.3 4.2-9.8 4.2-2.9 0-5.5-1-7.3-2.9-2.1-2.1-3.3-4.8-3.3-7.8s1.1-5.8 3.3-7.8l14.6-14.6-.2-.7c-1.2-3.6-1.6-7.5-1.3-11.5l.3-3.3L6.9 60.5c-9 9-9 23.6 0 32.6 4.1 4.1 9.7 6.3 15.7 6.3z"/></symbol>
<symbol id="ico-unlink" viewBox="0 0 100 100"><path d="M40.1 41.3l-9.9 9.9h-5v-9.9h14.9zm47.7-18l11.7-11.7-7.4-7.4L7.9 88.4l7.4 7.4 44.6-44.5h14.8v-9.9h-4.9l9.9-9.9c5.5 0 9.9 4.4 9.9 9.9v9.9c0 5.5-4.4 9.9-9.9 9.9H55.1c4.5 6 11.6 9.9 19.7 9.9h4.9c10.9 0 19.8-8.9 19.8-19.8v-9.9c0-8.1-4.8-15-11.7-18.1zm-75.6 46l8.1-8.1c-5.5 0-9.9-4.4-9.9-9.9v-9.9c0-5.5 4.4-9.9 9.9-9.9h24.6c-4.5-6-11.6-9.9-19.7-9.9h-5C9.3 21.6.4 30.5.4 41.4v9.9c.1 8 4.9 14.9 11.8 18z"/></symbol>
<symbol id="ico-noData" viewBox="0 0 100 100"><path d="M26.6 21.7c2 0 3.5-1.6 3.5-3.5 0-2-1.6-3.5-3.5-3.5S23 16.2 23 18.2c0 1.9 1.6 3.5 3.6 3.5zM26.6 50c2 0 3.5-1.6 3.5-3.5S28.5 43 26.6 43 23 44.5 23 46.5s1.6 3.5 3.6 3.5zM26.6 78.3c2 0 3.5-1.6 3.5-3.5 0-2-1.6-3.5-3.5-3.5S23 72.8 23 74.8c0 1.9 1.6 3.5 3.6 3.5z"/><path d="M72.6.5H16c-3.8 0-7.1 3.2-7.1 7.1v77.8c0 3.8 3.2 7.1 7.1 7.1h28.3v-7.1H16V64.2h63.7V7.6C79.6 3.7 76.4.5 72.6.5zm0 56.6H16V35.9h56.6v21.2zm0-28.3H16V7.6h56.6v21.2z"/><path d="M91.1 94.5l-10-10 10-10-5-5-10 10-10-10-5 5 10 10-10 10 5 5 10-10 10 10 5-5z"/></symbol>
</svg>
